<mxfile host="app.diagrams.net" modified="2024-04-24T09:26:58.965Z" agent="Mozilla/5.0 (X11; Linux x86_64) AppleWebKit/537.36 (KHTML, like Gecko) Chrome/123.0.0.0 Safari/537.36" etag="lbg-ZoAi6uaWBk_kyV46" version="24.2.5" type="github">
  <diagram id="6a731a19-8d31-9384-78a2-239565b7b9f0" name="Page-1">
    <mxGraphModel dx="2481" dy="2230" grid="1" gridSize="10" guides="1" tooltips="1" connect="1" arrows="1" fold="1" page="1" pageScale="1" pageWidth="827" pageHeight="1169" background="none" math="0" shadow="0">
      <root>
        <mxCell id="0" />
        <mxCell id="1" parent="0" />
        <mxCell id="nHsERuX6E_DnSSbxe-_6-2100" value="" style="group;movable=1;resizable=1;rotatable=1;deletable=1;editable=1;locked=0;connectable=1;" parent="1" vertex="1" connectable="0">
          <mxGeometry x="-200" y="-270" width="1652" height="920" as="geometry" />
        </mxCell>
        <mxCell id="2093" value="Kubernates cluster" style="rounded=1;whiteSpace=wrap;html=1;strokeColor=none;fillColor=#BAC8D3;fontSize=24;fontColor=#23445D;align=center;opacity=60;movable=0;resizable=0;rotatable=0;deletable=0;editable=0;locked=1;connectable=0;" parent="nHsERuX6E_DnSSbxe-_6-2100" vertex="1">
          <mxGeometry width="1652" height="921" as="geometry" />
        </mxCell>
        <mxCell id="nHsERuX6E_DnSSbxe-_6-2104" value="" style="group" parent="nHsERuX6E_DnSSbxe-_6-2100" vertex="1" connectable="0">
          <mxGeometry x="1080" y="509.44625407166126" width="200" height="199.7828447339848" as="geometry" />
        </mxCell>
        <mxCell id="nHsERuX6E_DnSSbxe-_6-2105" value="- Handles game loop and lobbies.&lt;br&gt;- Stores messages into Redis.&lt;br&gt;- Creates new lobbies with lobby_id.&lt;br&gt;- Keeps master updated about lobbies." style="text;strokeColor=none;fillColor=none;align=left;verticalAlign=middle;spacingLeft=4;spacingRight=4;overflow=hidden;points=[[0,0.5],[1,0.5]];portConstraint=eastwest;rotatable=0;whiteSpace=wrap;html=1;" parent="nHsERuX6E_DnSSbxe-_6-2104" vertex="1">
          <mxGeometry x="2" y="19.97828447339848" width="196" height="179.80456026058633" as="geometry" />
        </mxCell>
        <mxCell id="nHsERuX6E_DnSSbxe-_6-2106" value="&lt;font style=&quot;font-size: 16px;&quot;&gt;Worker node (Python)&lt;/font&gt;&lt;span style=&quot;color: rgba(0, 0, 0, 0); font-family: monospace; font-size: 0px; font-weight: 400; text-align: start; text-wrap: nowrap;&quot;&gt;%3CmxGraphModel%3E%3Croot%3E%3CmxCell%20id%3D%220%22%2F%3E%3CmxCell%20id%3D%221%22%20parent%3D%220%22%2F%3E%3CmxCell%20id%3D%222%22%20value%3D%22Kubernates%20cluster%22%20style%3D%22rounded%3D1%3BwhiteSpace%3Dwrap%3Bhtml%3D1%3BstrokeColor%3Dnone%3BfillColor%3D%23BAC8D3%3BfontSize%3D24%3BfontColor%3D%2323445D%3Balign%3Dcenter%3Bopacity%3D60%3B%22%20vertex%3D%221%22%20parent%3D%221%22%3E%3CmxGeometry%20x%3D%22-40%22%20width%3D%221692%22%20height%3D%22631%22%20as%3D%22geometry%22%2F%3E%3C%2FmxCell%3E%3C%2Froot%3E%3C%2FmxGraphModel%3E&lt;/span&gt;" style="swimlane;whiteSpace=wrap;html=1;" parent="nHsERuX6E_DnSSbxe-_6-2104" vertex="1">
          <mxGeometry width="200" height="199.7828447339848" as="geometry">
            <mxRectangle x="214" y="120" width="190" height="30" as="alternateBounds" />
          </mxGeometry>
        </mxCell>
        <mxCell id="nHsERuX6E_DnSSbxe-_6-2108" value="" style="group" parent="nHsERuX6E_DnSSbxe-_6-2100" vertex="1" connectable="0">
          <mxGeometry x="1080" y="209.77198697068403" width="200" height="199.7828447339848" as="geometry" />
        </mxCell>
        <mxCell id="nHsERuX6E_DnSSbxe-_6-2109" value="- Used for in-memory data storage.&lt;div&gt;- Not persistent so, when deleted, data is lost.&lt;/div&gt;&lt;div&gt;- Stores user messages in sorted sets.&amp;nbsp;&lt;br&gt;- Lobby ID is used for per lobby data storage of messages.&lt;/div&gt;" style="text;strokeColor=none;fillColor=none;align=left;verticalAlign=middle;spacingLeft=4;spacingRight=4;overflow=hidden;points=[[0,0.5],[1,0.5]];portConstraint=eastwest;rotatable=0;whiteSpace=wrap;html=1;" parent="nHsERuX6E_DnSSbxe-_6-2108" vertex="1">
          <mxGeometry x="2" y="19.97828447339848" width="196" height="179.80456026058633" as="geometry" />
        </mxCell>
        <mxCell id="nHsERuX6E_DnSSbxe-_6-2110" value="&lt;span style=&quot;font-size: 16px;&quot;&gt;Worker database (Redis)&lt;/span&gt;" style="swimlane;whiteSpace=wrap;html=1;" parent="nHsERuX6E_DnSSbxe-_6-2108" vertex="1">
          <mxGeometry width="200" height="199.7828447339848" as="geometry">
            <mxRectangle x="214" y="120" width="190" height="30" as="alternateBounds" />
          </mxGeometry>
        </mxCell>
        <mxCell id="nHsERuX6E_DnSSbxe-_6-2111" value="MASTER NODE&#xa;" style="swimlane;startSize=0;" parent="nHsERuX6E_DnSSbxe-_6-2100" vertex="1">
          <mxGeometry x="270" y="455.01" width="410" height="309.66" as="geometry" />
        </mxCell>
        <mxCell id="nHsERuX6E_DnSSbxe-_6-2112" value="WORKER NODE&#xa;" style="swimlane;startSize=0;" parent="nHsERuX6E_DnSSbxe-_6-2100" vertex="1">
          <mxGeometry x="975" y="155.33116178067317" width="410" height="609.3376764386536" as="geometry" />
        </mxCell>
        <mxCell id="nHsERuX6E_DnSSbxe-_6-2103" value="" style="group" parent="nHsERuX6E_DnSSbxe-_6-2100" vertex="1" connectable="0">
          <mxGeometry x="368" y="510.001986970684" width="200" height="199.7828447339848" as="geometry" />
        </mxCell>
        <mxCell id="nHsERuX6E_DnSSbxe-_6-2102" value="- Acts as the traffic entry point to the cluster.&lt;div&gt;- Focus purely on routing and load balancing.&lt;br&gt;- Launches lobby creating.&lt;br&gt;&lt;span style=&quot;background-color: initial;&quot;&gt;- Keeps lobby status updated on master database.&lt;/span&gt;&lt;br&gt;&lt;/div&gt;" style="text;strokeColor=none;fillColor=none;align=left;verticalAlign=middle;spacingLeft=4;spacingRight=4;overflow=hidden;points=[[0,0.5],[1,0.5]];portConstraint=eastwest;rotatable=0;whiteSpace=wrap;html=1;" parent="nHsERuX6E_DnSSbxe-_6-2103" vertex="1">
          <mxGeometry x="2" y="19.97828447339848" width="196" height="179.80456026058633" as="geometry" />
        </mxCell>
        <mxCell id="nHsERuX6E_DnSSbxe-_6-2095" value="&lt;font style=&quot;font-size: 16px;&quot;&gt;Master node (Python)&lt;/font&gt;&lt;span style=&quot;color: rgba(0, 0, 0, 0); font-family: monospace; font-size: 0px; font-weight: 400; text-align: start; text-wrap: nowrap;&quot;&gt;%3CmxGraphModel%3E%3Croot%3E%3CmxCell%20id%3D%220%22%2F%3E%3CmxCell%20id%3D%221%22%20parent%3D%220%22%2F%3E%3CmxCell%20id%3D%222%22%20value%3D%22Kubernates%20cluster%22%20style%3D%22rounded%3D1%3BwhiteSpace%3Dwrap%3Bhtml%3D1%3BstrokeColor%3Dnone%3BfillColor%3D%23BAC8D3%3BfontSize%3D24%3BfontColor%3D%2323445D%3Balign%3Dcenter%3Bopacity%3D60%3B%22%20vertex%3D%221%22%20parent%3D%221%22%3E%3CmxGeometry%20x%3D%22-40%22%20width%3D%221692%22%20height%3D%22631%22%20as%3D%22geometry%22%2F%3E%3C%2FmxCell%3E%3C%2Froot%3E%3C%2FmxGraphModel%3E&lt;/span&gt;" style="swimlane;whiteSpace=wrap;html=1;" parent="nHsERuX6E_DnSSbxe-_6-2103" vertex="1">
          <mxGeometry width="200" height="199.7828447339848" as="geometry">
            <mxRectangle x="214" y="120" width="190" height="30" as="alternateBounds" />
          </mxGeometry>
        </mxCell>
        <mxCell id="nHsERuX6E_DnSSbxe-_6-2168" style="edgeStyle=orthogonalEdgeStyle;rounded=0;orthogonalLoop=1;jettySize=auto;html=1;exitX=1;exitY=0.5;exitDx=0;exitDy=0;entryX=0;entryY=0.75;entryDx=0;entryDy=0;" parent="nHsERuX6E_DnSSbxe-_6-2100" source="nHsERuX6E_DnSSbxe-_6-2111" target="nHsERuX6E_DnSSbxe-_6-2112" edge="1">
          <mxGeometry relative="1" as="geometry" />
        </mxCell>
        <mxCell id="nHsERuX6E_DnSSbxe-_6-2169" value="gRPC" style="edgeLabel;html=1;align=center;verticalAlign=middle;resizable=0;points=[];" parent="nHsERuX6E_DnSSbxe-_6-2168" vertex="1" connectable="0">
          <mxGeometry x="-0.002" y="-4" relative="1" as="geometry">
            <mxPoint x="2" as="offset" />
          </mxGeometry>
        </mxCell>
        <mxCell id="nHsERuX6E_DnSSbxe-_6-2175" value="" style="endArrow=classic;html=1;rounded=0;exitX=0.5;exitY=0;exitDx=0;exitDy=0;entryX=0.5;entryY=1;entryDx=0;entryDy=0;" parent="nHsERuX6E_DnSSbxe-_6-2100" source="nHsERuX6E_DnSSbxe-_6-2106" target="nHsERuX6E_DnSSbxe-_6-2110" edge="1">
          <mxGeometry width="50" height="50" relative="1" as="geometry">
            <mxPoint x="658" y="720" as="sourcePoint" />
            <mxPoint x="708" y="670" as="targetPoint" />
          </mxGeometry>
        </mxCell>
        <mxCell id="nHsERuX6E_DnSSbxe-_6-2176" value="redis-py" style="edgeLabel;html=1;align=center;verticalAlign=middle;resizable=0;points=[];" parent="nHsERuX6E_DnSSbxe-_6-2175" vertex="1" connectable="0">
          <mxGeometry x="0.1235" y="-1" relative="1" as="geometry">
            <mxPoint as="offset" />
          </mxGeometry>
        </mxCell>
        <mxCell id="nHsERuX6E_DnSSbxe-_6-2170" value="" style="group" parent="nHsERuX6E_DnSSbxe-_6-2100" vertex="1" connectable="0">
          <mxGeometry x="60" y="100.00198697068402" width="200" height="199.7828447339848" as="geometry" />
        </mxCell>
        <mxCell id="nHsERuX6E_DnSSbxe-_6-2172" value="&lt;div&gt;&lt;font style=&quot;font-size: 15px;&quot;&gt;&lt;br&gt;&lt;/font&gt;&lt;/div&gt;&lt;font style=&quot;font-size: 15px;&quot;&gt;Database adapter&lt;br&gt;(Python)&lt;/font&gt;" style="swimlane;whiteSpace=wrap;html=1;" parent="nHsERuX6E_DnSSbxe-_6-2170" vertex="1">
          <mxGeometry y="-9.77" width="200" height="199.7828447339848" as="geometry">
            <mxRectangle y="-9.77" width="190" height="49.77" as="alternateBounds" />
          </mxGeometry>
        </mxCell>
        <mxCell id="PMS9UKa3VKKSs420xkC8-2093" value="&lt;div&gt;&lt;span style=&quot;font-size: 16px;&quot;&gt;&lt;br&gt;&lt;/span&gt;&lt;/div&gt;&lt;span style=&quot;font-size: 16px;&quot;&gt;Master database (PostgreSQL)&lt;/span&gt;" style="swimlane;whiteSpace=wrap;html=1;" parent="nHsERuX6E_DnSSbxe-_6-2100" vertex="1">
          <mxGeometry x="348" y="90" width="182" height="210" as="geometry">
            <mxRectangle y="-9.77" width="190" height="49.77" as="alternateBounds" />
          </mxGeometry>
        </mxCell>
        <mxCell id="PMS9UKa3VKKSs420xkC8-2100" value="MASTER DATABASE&#xa;&#xa;" style="swimlane;startSize=0;" parent="PMS9UKa3VKKSs420xkC8-2093" vertex="1">
          <mxGeometry x="-308" y="-37.17" width="518" height="287.17" as="geometry" />
        </mxCell>
        <mxCell id="PMS9UKa3VKKSs420xkC8-2101" style="edgeStyle=orthogonalEdgeStyle;rounded=0;orthogonalLoop=1;jettySize=auto;html=1;exitX=1;exitY=1;exitDx=0;exitDy=0;entryX=0.998;entryY=0.979;entryDx=0;entryDy=0;entryPerimeter=0;" parent="PMS9UKa3VKKSs420xkC8-2093" source="PMS9UKa3VKKSs420xkC8-2100" target="PMS9UKa3VKKSs420xkC8-2100" edge="1">
          <mxGeometry relative="1" as="geometry" />
        </mxCell>
        <mxCell id="PMS9UKa3VKKSs420xkC8-2096" value="- Used for persistent data storage.&lt;div&gt;- Stores lobby ID, lobby status and timestamps of every existing lobby.&lt;/div&gt;" style="text;strokeColor=none;fillColor=none;align=left;verticalAlign=middle;spacingLeft=4;spacingRight=4;overflow=hidden;points=[[0,0.5],[1,0.5]];portConstraint=eastwest;rotatable=0;whiteSpace=wrap;html=1;" parent="nHsERuX6E_DnSSbxe-_6-2100" vertex="1">
          <mxGeometry x="348" y="125.33" width="182" height="164.67" as="geometry" />
        </mxCell>
        <mxCell id="nHsERuX6E_DnSSbxe-_6-2173" value="" style="endArrow=classic;html=1;rounded=0;exitX=1;exitY=0.5;exitDx=0;exitDy=0;entryX=-0.006;entryY=0.382;entryDx=0;entryDy=0;entryPerimeter=0;" parent="nHsERuX6E_DnSSbxe-_6-2100" source="nHsERuX6E_DnSSbxe-_6-2172" target="PMS9UKa3VKKSs420xkC8-2096" edge="1">
          <mxGeometry width="50" height="50" relative="1" as="geometry">
            <mxPoint x="-112" y="310" as="sourcePoint" />
            <mxPoint x="228" y="310" as="targetPoint" />
            <Array as="points" />
          </mxGeometry>
        </mxCell>
        <mxCell id="nHsERuX6E_DnSSbxe-_6-2177" value="psycopg2" style="edgeLabel;html=1;align=center;verticalAlign=middle;resizable=0;points=[];" parent="nHsERuX6E_DnSSbxe-_6-2173" vertex="1" connectable="0">
          <mxGeometry x="0.3249" y="-1" relative="1" as="geometry">
            <mxPoint x="-19" as="offset" />
          </mxGeometry>
        </mxCell>
        <mxCell id="PMS9UKa3VKKSs420xkC8-2097" style="edgeStyle=orthogonalEdgeStyle;rounded=0;orthogonalLoop=1;jettySize=auto;html=1;exitX=0;exitY=0.5;exitDx=0;exitDy=0;entryX=0.232;entryY=1.01;entryDx=0;entryDy=0;entryPerimeter=0;" parent="nHsERuX6E_DnSSbxe-_6-2100" source="nHsERuX6E_DnSSbxe-_6-2111" target="PMS9UKa3VKKSs420xkC8-2100" edge="1">
          <mxGeometry relative="1" as="geometry">
            <mxPoint x="788" y="425" as="sourcePoint" />
            <mxPoint x="160" y="410" as="targetPoint" />
          </mxGeometry>
        </mxCell>
        <mxCell id="PMS9UKa3VKKSs420xkC8-2098" value="REST" style="edgeLabel;html=1;align=center;verticalAlign=middle;resizable=0;points=[];" parent="PMS9UKa3VKKSs420xkC8-2097" vertex="1" connectable="0">
          <mxGeometry x="-0.002" y="-4" relative="1" as="geometry">
            <mxPoint x="2" as="offset" />
          </mxGeometry>
        </mxCell>
        <mxCell id="PMS9UKa3VKKSs420xkC8-2099" value="- Handles all communication with master database.&lt;br&gt;- RESTful API to handle worker/lobby statuses." style="text;strokeColor=none;fillColor=none;align=left;verticalAlign=middle;spacingLeft=4;spacingRight=4;overflow=hidden;points=[[0,0.5],[1,0.5]];portConstraint=eastwest;rotatable=0;whiteSpace=wrap;html=1;" parent="nHsERuX6E_DnSSbxe-_6-2100" vertex="1">
          <mxGeometry x="69" y="117.55999999999997" width="182" height="164.67" as="geometry" />
        </mxCell>
        <mxCell id="PMS9UKa3VKKSs420xkC8-2102" style="edgeStyle=orthogonalEdgeStyle;rounded=0;orthogonalLoop=1;jettySize=auto;html=1;exitX=-0.01;exitY=0.188;exitDx=0;exitDy=0;entryX=1;entryY=0.5;entryDx=0;entryDy=0;exitPerimeter=0;" parent="nHsERuX6E_DnSSbxe-_6-2100" source="nHsERuX6E_DnSSbxe-_6-2112" target="PMS9UKa3VKKSs420xkC8-2100" edge="1">
          <mxGeometry relative="1" as="geometry">
            <mxPoint x="280" y="620" as="sourcePoint" />
            <mxPoint x="170" y="353" as="targetPoint" />
          </mxGeometry>
        </mxCell>
        <mxCell id="PMS9UKa3VKKSs420xkC8-2103" value="REST" style="edgeLabel;html=1;align=center;verticalAlign=middle;resizable=0;points=[];" parent="PMS9UKa3VKKSs420xkC8-2102" vertex="1" connectable="0">
          <mxGeometry x="-0.002" y="-4" relative="1" as="geometry">
            <mxPoint x="2" as="offset" />
          </mxGeometry>
        </mxCell>
        <mxCell id="AZxGvj_TQ1TrPBvnZXGE-2093" value="--------------------------------" style="text;html=1;align=center;verticalAlign=middle;whiteSpace=wrap;rounded=0;" vertex="1" parent="nHsERuX6E_DnSSbxe-_6-2100">
          <mxGeometry x="720" y="445.5" width="130" height="30" as="geometry" />
        </mxCell>
        <mxCell id="nHsERuX6E_DnSSbxe-_6-2094" value="Python client&lt;br&gt;(gRPC)" style="rounded=1;whiteSpace=wrap;html=1;strokeColor=none;fillColor=#BAC8D3;fontSize=24;fontColor=#23445D;align=center;opacity=60;movable=1;resizable=1;rotatable=1;deletable=1;editable=1;locked=0;connectable=1;" parent="1" vertex="1">
          <mxGeometry x="657" y="680" width="342" height="171" as="geometry" />
        </mxCell>
        <mxCell id="nHsERuX6E_DnSSbxe-_6-2142" style="edgeStyle=orthogonalEdgeStyle;rounded=0;orthogonalLoop=1;jettySize=auto;html=1;exitX=0.5;exitY=1;exitDx=0;exitDy=0;" parent="1" source="nHsERuX6E_DnSSbxe-_6-2100" target="nHsERuX6E_DnSSbxe-_6-2100" edge="1">
          <mxGeometry relative="1" as="geometry" />
        </mxCell>
        <mxCell id="nHsERuX6E_DnSSbxe-_6-2143" style="edgeStyle=orthogonalEdgeStyle;rounded=0;orthogonalLoop=1;jettySize=auto;html=1;exitX=0.5;exitY=1;exitDx=0;exitDy=0;" parent="1" source="nHsERuX6E_DnSSbxe-_6-2100" target="nHsERuX6E_DnSSbxe-_6-2100" edge="1">
          <mxGeometry relative="1" as="geometry" />
        </mxCell>
        <mxCell id="nHsERuX6E_DnSSbxe-_6-2164" style="edgeStyle=orthogonalEdgeStyle;rounded=0;orthogonalLoop=1;jettySize=auto;html=1;exitX=0.75;exitY=0;exitDx=0;exitDy=0;entryX=0.5;entryY=1;entryDx=0;entryDy=0;" parent="1" source="nHsERuX6E_DnSSbxe-_6-2094" target="nHsERuX6E_DnSSbxe-_6-2112" edge="1">
          <mxGeometry relative="1" as="geometry">
            <mxPoint x="577" y="364.28881650380026" as="sourcePoint" />
            <Array as="points">
              <mxPoint x="906" y="560" />
              <mxPoint x="1182" y="560" />
            </Array>
          </mxGeometry>
        </mxCell>
        <mxCell id="nHsERuX6E_DnSSbxe-_6-2166" value="gRPC" style="edgeLabel;html=1;align=center;verticalAlign=middle;resizable=0;points=[];" parent="nHsERuX6E_DnSSbxe-_6-2164" vertex="1" connectable="0">
          <mxGeometry x="0.0531" relative="1" as="geometry">
            <mxPoint as="offset" />
          </mxGeometry>
        </mxCell>
        <mxCell id="z0tiVbKAX3ERPB_ByhYV-2094" style="edgeStyle=orthogonalEdgeStyle;rounded=0;orthogonalLoop=1;jettySize=auto;html=1;exitX=0.25;exitY=0;exitDx=0;exitDy=0;entryX=0.5;entryY=1;entryDx=0;entryDy=0;" parent="1" source="nHsERuX6E_DnSSbxe-_6-2094" target="nHsERuX6E_DnSSbxe-_6-2111" edge="1">
          <mxGeometry relative="1" as="geometry">
            <mxPoint x="916" y="810" as="sourcePoint" />
            <mxPoint x="1192" y="485" as="targetPoint" />
            <Array as="points">
              <mxPoint x="736" y="560" />
              <mxPoint x="477" y="560" />
            </Array>
          </mxGeometry>
        </mxCell>
        <mxCell id="z0tiVbKAX3ERPB_ByhYV-2095" value="gRPC" style="edgeLabel;html=1;align=center;verticalAlign=middle;resizable=0;points=[];" parent="z0tiVbKAX3ERPB_ByhYV-2094" vertex="1" connectable="0">
          <mxGeometry x="0.0531" relative="1" as="geometry">
            <mxPoint as="offset" />
          </mxGeometry>
        </mxCell>
      </root>
    </mxGraphModel>
  </diagram>
</mxfile>
